<?xml version="1.0" standalone="no"?>
<!DOCTYPE svg PUBLIC "-//W3C//DTD SVG 20010904//EN"
 "http://www.w3.org/TR/2001/REC-SVG-20010904/DTD/svg10.dtd">
<svg version="1.0" xmlns="http://www.w3.org/2000/svg"
 width="508.000000pt" height="508.000000pt" viewBox="0 0 508.000000 508.000000"
 preserveAspectRatio="xMidYMid meet">
<metadata>
Created by potrace 1.11, written by Peter Selinger 2001-2013
</metadata>
<g transform="translate(0.000000,508.000000) scale(0.100000,-0.100000)"
fill="#000000" stroke="none">
<path d="M2267 4853 c-1 -1 -49 -4 -107 -7 -131 -7 -256 -16 -295 -21 -16 -2
-68 -7 -115 -11 -47 -3 -88 -8 -91 -10 -3 -2 -35 -6 -70 -9 -35 -4 -71 -8 -79
-10 -8 -2 -37 -7 -65 -11 -27 -3 -59 -8 -70 -10 -11 -3 -36 -7 -55 -10 -49 -7
-81 -13 -106 -18 -12 -2 -37 -7 -55 -10 -43 -7 -341 -72 -394 -87 -22 -6 -50
-13 -63 -16 -23 -6 -23 -6 -17 -122 4 -64 8 -132 10 -151 2 -19 6 -82 10 -140
11 -183 14 -223 20 -305 11 -165 15 -212 21 -291 3 -45 7 -105 9 -135 4 -89
16 -260 21 -320 2 -32 7 -92 9 -135 3 -44 7 -110 10 -149 3 -38 7 -108 10
-155 6 -93 12 -187 20 -295 8 -109 15 -223 21 -305 16 -269 20 -295 56 -405
78 -241 243 -499 457 -714 126 -126 451 -370 641 -480 30 -17 62 -36 70 -41
55 -35 149 -85 309 -166 l185 -94 115 62 c64 34 130 69 146 78 17 9 62 34 100
55 318 175 528 327 773 560 200 190 376 460 463 711 48 138 53 175 74 499 3
44 7 109 10 145 2 36 7 106 10 155 3 50 8 115 10 145 3 30 7 93 10 140 3 47 7
105 10 130 2 25 7 95 10 155 3 61 8 128 10 150 3 22 7 85 10 140 3 55 8 118
10 140 2 22 7 85 10 140 4 55 8 120 10 145 2 25 6 92 10 150 3 58 8 125 10
150 2 25 6 88 10 140 4 52 8 115 10 140 2 25 7 91 10 146 l6 101 -38 10 c-162
44 -279 74 -297 77 -11 3 -73 16 -136 30 -63 14 -130 27 -147 30 -18 4 -48 9
-65 12 -18 3 -46 7 -63 10 -16 2 -39 5 -50 8 -11 2 -45 7 -75 11 -30 4 -63 9
-74 11 -10 2 -44 6 -75 9 -31 3 -69 8 -86 10 -16 2 -61 7 -100 10 -38 4 -88 8
-110 10 -149 13 -275 18 -528 19 -159 1 -289 0 -290 -1z"/>
</g>
</svg>
